<?xml version="1.0" encoding="utf-8"?>
<!-- Generator: Adobe Illustrator 22.0.0, SVG Export Plug-In . SVG Version: 6.00 Build 0)  -->
<svg version="1.1" id="Layer_1" xmlns="http://www.w3.org/2000/svg" xmlns:xlink="http://www.w3.org/1999/xlink" x="0px" y="0px"
	 viewBox="0 0 80 80" style="enable-background:new 0 0 80 80;" xml:space="preserve">
<style type="text/css">
	.st0{fill:#107AC5;}
	.st1{fill:#F7971C;}
</style>
<title>assets/logo-tripit</title>
<desc>Created with Sketch.</desc>
<g id="Atom" transform="translate(35.000000, 0.000000)">
	<path id="Fill-37" class="st0" d="M4.2,43c0-0.2,0-0.5,0.1-0.7l-22.9,0.2c-0.3-1.4-1.7-2.5-3.3-2.5c-1.9,0-3.4,1.3-3.4,3
		c0,1.7,1.5,3,3.4,3c1.7,0,3-1.1,3.3-2.5l22.9,0.2C4.2,43.5,4.2,43.3,4.2,43"/>
	<path id="Fill-39" class="st0" d="M15,40.5l7.4-4.9c0.4,0.3,0.8,0.5,1.3,0.5c1.1,0,2-0.9,2-2c0-1.1-0.9-2-2-2c-1.1,0-2,0.9-2,2
		c0,0.2,0,0.4,0.1,0.6l-7.6,4.8C14.5,39.8,14.8,40.1,15,40.5"/>
	<path id="Fill-41" class="st0" d="M4.9,45.5L1.4,48c-0.4-0.3-0.8-0.5-1.3-0.5c-1.1,0-2,0.9-2,2c0,1.1,0.9,2,2,2c1.1,0,2-0.9,2-2
		c0-0.2,0-0.4-0.1-0.6l3.7-2.3C5.4,46.2,5.2,45.9,4.9,45.5"/>
	<path id="Fill-43" class="st0" d="M10,28c-1.7,0-3,1.3-3,3C7,32.5,8,33.7,9.4,34l-0.1,3.8c0.2,0,0.4,0,0.6,0c0.2,0,0.4,0,0.6,0
		L10.5,34c1.4-0.3,2.4-1.5,2.4-2.9C13,29.4,11.6,28,10,28"/>
	<path id="Fill-45" class="st0" d="M32,40c-1.5,0-2.7,1.1-2.9,2.5l-13.4-0.2c0,0.2,0.1,0.5,0.1,0.7c0,0.2,0,0.5-0.1,0.7L29,43.5
		c0.3,1.4,1.5,2.5,2.9,2.5c1.7,0,3-1.3,3-3C35,41.4,33.6,40,32,40"/>
	<path id="Fill-47" class="st0" d="M0.8,35c0-1-0.8-1.7-1.7-1.7S-2.7,34-2.7,35S-2,36.7-1,36.7c0.4,0,0.7-0.1,1-0.3l5.1,3.9
		c0.2-0.4,0.5-0.7,0.9-1l-5.3-3.7C0.7,35.3,0.8,35.2,0.8,35"/>
	<path id="Fill-49" class="st0" d="M16,46.2c-0.2,0-0.4,0.1-0.6,0.1l-0.6-0.5c-0.2,0.3-0.5,0.6-0.8,0.9l0.7,0.5c0,0.1,0,0.2,0,0.2
		c0,0.7,0.6,1.2,1.3,1.2c0.7,0,1.3-0.6,1.3-1.2C17.3,46.8,16.7,46.2,16,46.2"/>
</g>
<path id="Fill-51" class="st1" d="M49.5,43c0-2.2-2-4-4.5-4c-2.5,0-4.5,1.8-4.5,4c0,2.2,2,4,4.5,4C47.5,47,49.5,45.2,49.5,43"/>
</svg>
